<svg width="885" height="1024" viewBox="0 0 885 1024" fill="none" xmlns="http://www.w3.org/2000/svg">
<g clip-path="url(#clip0_78_4)">
<rect width="885" height="1024" fill="url(#paint0_linear_78_4)"/>
<mask id="mask0_78_4" style="mask-type:luminance" maskUnits="userSpaceOnUse" x="-203" y="822" width="1036" height="204">
<path d="M-202.32 822.861H832.666V1025.54H-202.32V822.861Z" fill="white"/>
</mask>
<g mask="url(#mask0_78_4)">
<path d="M831.141 1022.49C786.73 1026.19 742.319 1022.49 697.908 1022.49C594.273 1022.49 492.495 1022.49 388.86 1022.49C274.125 1022.49 159.39 1022.49 44.6637 1022.49C40.9606 1022.49 37.2575 1022.49 31.7072 1022.49C-9.0094 1022.49 -51.5732 1022.49 -92.2812 1022.49C-112.635 1022.49 -132.989 1022.49 -153.352 1022.49C-164.452 1022.49 -173.706 1022.49 -184.806 1022.49C-194.06 1022.49 -201.466 1022.49 -201.466 1013.25C-201.466 1009.56 -199.61 1005.86 -199.61 1002.16C-179.256 954.099 -123.744 946.701 -79.3247 928.224C15.0477 891.252 102.023 822.861 203.81 822.861C275.981 822.861 340.746 856.134 409.214 882.009C525.805 926.37 649.794 943.011 773.773 959.643C790.433 961.497 807.084 965.187 820.04 974.43C838.547 991.071 831.141 1004 831.141 1022.49Z" fill="#70DDE6"/>
</g>
<path d="M712.573 991.996C718.123 1001.25 723.683 1010.52 725.53 1019.79C729.233 1038.32 699.624 1045.73 682.963 1053.14C681.116 1053.14 679.26 1055 677.413 1055H-48.0499C-61.0072 1047.58 -88.7692 1036.47 -94.3198 1023.49C-101.718 1008.67 -79.5152 991.996 -64.7105 988.288C-46.2025 982.73 -27.6946 986.429 -7.33925 986.429C61.1421 990.137 127.759 977.163 192.537 958.639C257.306 940.107 320.236 917.867 386.853 904.893C453.478 891.927 523.807 888.219 588.576 906.751C629.296 917.867 668.159 940.107 694.065 969.755C699.624 975.313 707.022 982.73 712.573 991.996Z" fill="#7EE4ED"/>
<path d="M1021.14 1026H-274C-270.306 1018.62 -266.604 1013.09 -262.901 1007.55C-251.803 989.109 -240.696 974.354 -233.3 963.29C-194.446 913.484 -140.792 876.593 -85.2815 859.997C18.3251 828.637 127.49 854.465 227.403 893.198C238.501 896.888 249.608 902.42 260.707 907.952C342.116 941.153 423.526 979.886 510.485 974.354C525.286 974.354 540.087 970.663 553.041 968.822C601.146 959.599 647.396 939.312 693.654 920.866C752.858 896.888 817.619 876.593 878.679 887.666C906.425 893.198 934.18 904.262 958.233 924.548C987.835 946.685 1010.04 979.886 1017.45 1020.46C1021.14 1020.46 1021.14 1022.31 1021.14 1026Z" fill="#50BFC8"/>
<mask id="mask1_78_4" style="mask-type:luminance" maskUnits="userSpaceOnUse" x="-178" y="790" width="462" height="157">
<path d="M-177.772 790.835H283.956V946.799H-177.772V790.835Z" fill="white"/>
</mask>
<g mask="url(#mask1_78_4)">
<mask id="mask2_78_4" style="mask-type:luminance" maskUnits="userSpaceOnUse" x="-210" y="642" width="511" height="463">
<path d="M-209.244 847.041L155.001 642.452L300.006 900.044L-64.2307 1104.63L-209.244 847.041Z" fill="white"/>
</mask>
<g mask="url(#mask2_78_4)">
<mask id="mask3_78_4" style="mask-type:luminance" maskUnits="userSpaceOnUse" x="-210" y="642" width="511" height="463">
<path d="M-209.244 847.041L155.001 642.452L300.006 900.044L-64.2307 1104.63L-209.244 847.041Z" fill="white"/>
</mask>
<g mask="url(#mask3_78_4)">
<path d="M283.512 908.33C279.983 910.306 275.888 911.28 271.514 911.75L270.983 906.093C274.572 905.406 278.162 904.709 281.186 903.012L283.512 908.33ZM258.828 911.594C257.251 911.159 255.961 911.219 254.889 910.497C252.24 909.331 249.6 908.165 247.457 906.72L250.576 901.655C252.72 903.099 255.081 903.761 256.937 904.709C258.009 905.432 259.298 905.371 260.082 905.588L258.828 911.594ZM237.759 898.913C235.049 896.467 232.061 893.508 229.578 890.262L234.047 886.432C236.531 889.67 239.24 892.124 241.95 894.579L237.759 898.913ZM221.893 881.332L219.976 879.095C218.05 876.867 216.638 874.352 214.713 872.115L219.47 868.782C221.387 871.019 222.807 873.534 224.724 875.762L226.65 877.999L221.893 881.332ZM207.533 862.899C204.545 859.939 202.34 857.207 199.134 855.031L202.532 850.47C205.242 852.925 208.23 855.884 211.219 858.843L207.533 862.899ZM60.0366 937.799C58.5205 938.652 57.0131 939.497 55.497 940.35L53.1706 935.032C56.1941 933.335 59.7229 931.35 62.7464 929.653L66.0836 934.405C64.5675 935.249 62.5547 936.381 60.0366 937.799ZM44.5707 944.492C40.4755 945.467 36.3803 946.442 32.5117 946.633L31.9802 940.976C35.8488 940.785 39.4387 940.088 42.7497 938.896L44.5707 944.492ZM75.8075 926.946L71.9737 922.482C74.2042 920.567 76.4435 918.643 78.3953 916.224L80.1292 914.588L84.4683 918.774L82.7431 920.41C80.7827 922.83 78.5521 924.753 75.8075 926.946ZM92.5629 909.592L87.9972 906.189C90.4543 903.491 92.6326 900.279 95.3075 896.789L99.8732 900.184C97.1983 903.674 94.7412 906.38 92.5629 909.592ZM20.0431 945.685C19.2503 945.467 18.4661 945.25 17.1765 945.31C14.0311 944.431 11.3823 943.265 7.94927 941.881L10.2844 936.598C12.9245 937.765 15.5733 938.922 17.9346 939.584C18.7187 939.81 19.5029 940.028 20.2958 940.245L20.0431 945.685ZM190.063 849.53L188.486 849.086C185.846 847.92 182.692 847.041 179.825 846.667L180.583 840.94C184.234 841.541 187.388 842.42 190.821 843.803C191.606 844.021 191.893 844.526 192.677 844.752L190.063 849.53ZM106.678 891.063L102.113 887.668C104.282 884.465 106.739 881.759 109.414 878.269L113.98 881.663C111.305 885.153 108.848 887.86 106.678 891.063ZM121.351 873.551L117.291 869.87C119.243 867.45 121.979 865.248 123.93 862.82L125.159 861.471L129.001 865.936L127.773 867.294C125.76 868.425 123.303 871.132 121.351 873.551ZM168.934 846.162C165.344 846.85 161.754 847.546 158.164 848.233L156.335 842.637C160.43 841.662 164.525 840.688 168.115 839.991L168.934 846.162ZM137.95 858.268L134.613 853.516C137.854 851.027 141.383 849.052 144.912 847.067L147.743 852.098C144.215 854.082 141.479 856.284 137.95 858.268ZM-1.96632 934.866C-4.67612 932.412 -7.66474 929.453 -10.6534 926.494L-6.1835 922.664C-3.70025 925.902 -0.99045 928.356 1.71935 930.811L-1.96632 934.866ZM-17.6152 916.494C-18.1815 915.484 -18.7479 914.483 -19.3143 913.474C-20.7345 910.958 -22.146 908.443 -23.0609 905.641L-17.7372 903.317C-16.3256 905.832 -15.4108 908.635 -14.278 910.645C-13.7117 911.655 -13.4241 912.151 -12.8578 913.16L-17.6152 916.494ZM-22.1112 893.186L-27.7225 895.014C-29.195 891.202 -29.892 887.616 -30.8679 883.534L-25.2653 881.706C-24.2895 885.797 -23.0871 889.096 -22.1112 893.186ZM-28.1233 870.732L-34.0134 872.046L-34.4229 868.965C-35.3378 866.171 -35.4598 863.586 -36.3746 860.792L-30.4845 859.469C-29.5697 862.272 -29.4477 864.848 -28.5328 867.651L-28.1233 870.732ZM-34.1354 848.268L-39.7379 850.096C-40.7138 846.005 -41.9162 842.698 -43.1099 839.4L-37.7862 837.076C-36.5925 840.374 -35.1112 844.178 -34.1354 848.268ZM-42.7265 825.935L-47.7715 828.764C-48.0503 828.268 -48.6167 827.258 -48.9042 826.754C-50.3157 824.238 -51.736 821.723 -53.6529 819.486L-48.9042 816.153C-46.9786 818.39 -45.2795 821.41 -43.8593 823.925C-43.5804 824.43 -43.2929 824.935 -42.7265 825.935ZM-171.028 891.376L-176.979 891.402C-177.162 887.538 -176.848 883.386 -175.742 879.452L-170.017 880.209C-170.61 883.856 -170.932 888.008 -171.028 891.376ZM-60.8325 810.269C-63.5423 807.815 -66.2521 805.361 -69.4586 803.194L-66.3392 798.128C-63.1328 800.304 -59.6388 802.976 -56.6415 805.935L-60.8325 810.269ZM-166.924 869.2L-172.44 867.659C-171.054 864.23 -169.948 860.296 -168.057 856.589L-162.768 858.912C-164.659 862.629 -166.044 866.058 -166.924 869.2ZM-157.828 848.851L-162.89 845.736C-160.72 842.524 -158.83 838.816 -156.66 835.605L-151.589 838.721C-153.759 841.932 -155.649 845.64 -157.828 848.851ZM-79.2522 798.755C-81.1081 797.815 -83.1905 797.658 -85.2643 797.502C-86.8413 797.058 -88.1309 797.119 -90.2133 796.962L-89.9607 791.522C-87.8782 791.679 -86.3011 792.123 -84.2274 792.28C-81.8661 792.941 -79.7837 793.098 -77.4224 793.759L-79.2522 798.755ZM-144.784 829.6L-149.35 826.205C-147.18 822.994 -144.218 820.009 -141.76 817.302L-137.413 821.488C-140.157 823.69 -142.614 826.397 -144.784 829.6ZM-100.826 796.962C-104.416 797.65 -107.718 798.851 -111.526 800.322L-113.861 795.013C-110.045 793.533 -106.237 792.053 -102.142 791.079L-100.826 796.962ZM-129.545 813.089L-133.387 808.625C-130.425 805.639 -127.183 803.15 -123.654 801.174L-120.317 805.927C-123.846 807.902 -126.582 810.104 -129.545 813.089Z" fill="white"/>
</g>
</g>
</g>
<mask id="mask4_78_4" style="mask-type:luminance" maskUnits="userSpaceOnUse" x="283" y="903" width="12" height="10">
<path d="M283.73 903.28H294.883V912.192H283.73V903.28Z" fill="white"/>
</mask>
<g mask="url(#mask4_78_4)">
<mask id="mask5_78_4" style="mask-type:luminance" maskUnits="userSpaceOnUse" x="-212" y="654" width="510" height="463">
<path d="M-211.701 859.224L152.544 654.635L297.549 912.227L-66.688 1116.82L-211.701 859.224Z" fill="white"/>
</mask>
<g mask="url(#mask5_78_4)">
<mask id="mask6_78_4" style="mask-type:luminance" maskUnits="userSpaceOnUse" x="-212" y="654" width="510" height="463">
<path d="M-211.701 859.224L152.544 654.635L297.549 912.227L-66.688 1116.82L-211.701 859.224Z" fill="white"/>
</mask>
<g mask="url(#mask6_78_4)">
<path d="M290.944 910.983L285.873 907.867C286.596 906.796 287.546 904.943 287.982 903.367L293.497 904.908C292.835 907.266 292.173 909.634 290.944 910.983Z" fill="white"/>
</g>
</g>
</g>
<mask id="mask7_78_4" style="mask-type:luminance" maskUnits="userSpaceOnUse" x="265" y="834" width="53" height="72">
<path d="M265.885 834H317.115V905.508H265.885V834Z" fill="white"/>
</mask>
<g mask="url(#mask7_78_4)">
<mask id="mask8_78_4" style="mask-type:luminance" maskUnits="userSpaceOnUse" x="266" y="833" width="51" height="73">
<path d="M266.764 834.978L315.157 833.956L316.637 904.269L268.243 905.299L266.764 834.978Z" fill="white"/>
</mask>
<g mask="url(#mask8_78_4)">
<mask id="mask9_78_4" style="mask-type:luminance" maskUnits="userSpaceOnUse" x="266" y="833" width="51" height="73">
<path d="M266.764 834.978L315.157 833.956L316.637 904.269L268.243 905.299L266.764 834.978Z" fill="white"/>
</mask>
<g mask="url(#mask9_78_4)">
<path d="M291.048 834.471C277.64 834.759 266.99 845.898 267.277 859.358C267.66 877.628 292.518 904.094 292.518 904.094C292.518 904.094 316.236 876.598 315.854 858.319C315.566 844.868 304.464 834.183 291.048 834.471ZM291.744 867.546C286.958 867.642 282.991 863.827 282.886 859.026C282.791 854.216 286.593 850.236 291.378 850.14C296.172 850.035 300.14 853.85 300.236 858.651C300.34 863.461 296.538 867.441 291.744 867.546Z" fill="white"/>
</g>
</g>
</g>
<ellipse cx="581.528" cy="255.5" rx="72.5278" ry="67.5" fill="#A4F4FA"/>
</g>
<defs>
<linearGradient id="paint0_linear_78_4" x1="442.5" y1="0" x2="442.5" y2="1024" gradientUnits="userSpaceOnUse">
<stop stop-color="#60DBE3"/>
<stop offset="1" stop-color="#A5F5FA"/>
</linearGradient>
<clipPath id="clip0_78_4">
<rect width="885" height="1024" fill="white"/>
</clipPath>
</defs>
</svg>
